<?xml version="1.0" encoding="UTF-8"?>
<svg width="91px" height="73px" viewBox="0 0 91 73" version="1.1" xmlns="http://www.w3.org/2000/svg" xmlns:xlink="http://www.w3.org/1999/xlink">
    <!-- Generator: Sketch 56.3 (81716) - https://sketch.com -->
    <title>Group</title>
    <desc>Created with Sketch.</desc>
    <g id="Page-1" stroke="none" stroke-width="1" fill="none" fill-rule="evenodd">
        <g id="Group" transform="translate(-0.000002, 0.000000)" fill="#6D7278" fill-rule="nonzero">
            <path d="M4.32400178,28.7052462 C4.32400178,25.4792462 0.187001782,24.6902462 0,21.7062462 L0,0.731246169 C-0.000998217986,0.328246169 0.419001782,0.00124616865 0.937001782,0.00124616865 C1.45600178,0.00124616865 1.87500178,0.328246169 1.87500178,0.731246169 L1.87500178,16.9262462 C1.87500178,17.3292462 2.29500178,17.6562462 2.81500178,17.6562462 L2.85200178,17.6562462 C3.37200178,17.6562462 3.79200178,17.3282462 3.79200178,16.9262462 L3.79200178,0.731246169 C3.79200178,0.328246169 4.21100178,0.00124616865 4.73000178,0.00124616865 C5.24700178,0.00124616865 5.66700178,0.328246169 5.66700178,0.731246169 L5.66700178,16.9262462 C5.66700178,17.3292462 6.08700178,17.6562462 6.60700178,17.6562462 L6.64300178,17.6562462 C7.16500178,17.6562462 7.58500178,17.3282462 7.58500178,16.9262462 L7.58500178,0.731246169 C7.58500178,0.328246169 8.00300178,0.00124616865 8.52300178,0.00124616865 C9.04100178,0.00124616865 9.46100178,0.328246169 9.46100178,0.731246169 L9.46100178,16.9262462 C9.46100178,17.3292462 9.88100178,17.6562462 10.4010018,17.6562462 L10.4390018,17.6562462 C10.9590018,17.6562462 11.3790018,17.3282462 11.3790018,16.9262462 L11.3790018,0.731246169 C11.3790018,0.328246169 11.7970018,0.00124616865 12.3170018,0.00124616865 C12.8350018,0.00124616865 13.2550018,0.328246169 13.2550018,0.731246169 L13.2550018,21.7062462 C13.0660018,24.6902462 8.93000178,25.4792462 8.93000178,28.7052462 L8.93300178,31.1892462 C8.93300178,34.9432462 10.7590018,67.0442462 10.7590018,68.8762462 C10.7590018,70.8992462 8.91200178,72.5412462 6.63700178,72.5412462 C4.36100178,72.5412462 2.51600178,70.8992462 2.51600178,68.8762462 C2.51600178,67.0452462 4.32200178,34.9202462 4.32200178,31.1892462 L4.32400178,28.7052462 L4.32400178,28.7052462 Z" id="Path"></path>
            <path d="M85.6696359,36.5432462 C85.6696359,33.8922462 77.7016359,31.2682462 80.2216359,17.3252462 C82.7426359,3.38124617 90.9256359,-3.43775383 90.9256359,1.71524617 L90.8076359,68.8752462 C90.8076359,70.8982462 88.9626359,72.5392462 86.6866359,72.5392462 C84.4116359,72.5392462 82.5666359,70.8982462 82.5666359,68.8752462 C82.5666359,68.8752462 85.6696359,38.5672462 85.6696359,36.5432462 Z" id="Path"></path>
            <g id="Group-2" transform="translate(17.992002, 8.060246)">
                <path d="M28.209,10.075 C18.209,10.075 10.074,18.211 10.074,28.21 C10.074,38.21 18.209,46.345 28.209,46.345 C38.208,46.345 46.344,38.209 46.344,28.21 C46.344,18.21 38.208,10.075 28.209,10.075 Z" id="Path"></path>
                <path d="M28.209,0 C12.629,0 0,12.628 0,28.21 C0,43.792 12.629,56.42 28.209,56.42 C43.79,56.42 56.419,43.791 56.419,28.21 C56.419,12.628 43.79,0 28.209,0 Z M28.209,48.763 C16.876,48.763 7.656,39.543 7.656,28.21 C7.656,16.877 16.876,7.657 28.209,7.657 C39.542,7.657 48.762,16.877 48.762,28.21 C48.762,39.543 39.542,48.763 28.209,48.763 Z" id="Shape"></path>
            </g>
        </g>
    </g>
</svg>